<?xml version="1.0" standalone="no"?>
<!DOCTYPE svg PUBLIC "-//W3C//DTD SVG 20010904//EN"
 "http://www.w3.org/TR/2001/REC-SVG-20010904/DTD/svg10.dtd">
<svg version="1.0" xmlns="http://www.w3.org/2000/svg"
 width="512.000000pt" height="512.000000pt" viewBox="0 0 512.000000 512.000000"
 preserveAspectRatio="xMidYMid meet">
<metadata>
Created by potrace 1.15, written by Peter Selinger 2001-2017
</metadata>
<g transform="translate(0.000000,512.000000) scale(0.100000,-0.100000)"
fill="#000000" stroke="none">
<path d="M203 4958 c-174 -172 -196 -198 -191 -231 3 -19 32 5 192 163 103
102 192 193 197 203 8 14 5 17 -17 17 -21 0 -60 -33 -181 -152z"/>
<path d="M303 4858 c-140 -139 -264 -265 -275 -281 -10 -15 -18 -37 -16 -50 3
-18 49 23 292 263 158 157 292 293 297 303 8 14 5 17 -17 17 -22 0 -75 -47
-281 -252z"/>
<path d="M402 4758 c-194 -194 -362 -365 -373 -381 -11 -15 -19 -37 -17 -50 4
-18 67 40 392 363 213 212 392 393 397 403 8 14 5 17 -18 17 -22 0 -89 -62
-381 -352z"/>
<path d="M502 4658 c-249 -249 -462 -465 -473 -481 -11 -15 -19 -37 -17 -50 4
-18 84 57 492 463 268 267 492 493 497 503 8 14 5 17 -18 17 -22 0 -104 -76
-481 -452z"/>
<path d="M602 4558 c-304 -304 -562 -565 -573 -581 -11 -15 -19 -37 -17 -50 4
-18 101 75 592 563 323 322 592 593 597 603 8 14 5 17 -18 17 -23 0 -118 -91
-581 -552z"/>
<path d="M702 4458 c-359 -359 -662 -665 -673 -681 -11 -15 -19 -37 -17 -50 4
-18 118 92 692 663 378 377 692 693 697 703 8 14 5 17 -18 17 -23 0 -133 -106
-681 -652z"/>
<path d="M802 4358 c-414 -414 -762 -765 -773 -781 -11 -15 -19 -37 -17 -50 4
-18 136 109 792 763 433 432 792 793 797 803 8 14 5 17 -18 17 -23 0 -148
-120 -781 -752z"/>
<path d="M902 4258 c-469 -469 -862 -865 -873 -881 -11 -15 -19 -37 -17 -50 4
-18 153 126 892 863 488 487 892 893 897 903 8 14 5 17 -18 17 -23 0 -162
-135 -881 -852z"/>
<path d="M1002 4158 c-524 -524 -962 -965 -973 -981 -11 -15 -19 -37 -17 -50
4 -18 170 144 992 963 543 542 992 993 997 1003 8 14 5 17 -18 17 -23 0 -177
-149 -981 -952z"/>
<path d="M1102 4058 c-579 -579 -1062 -1065 -1073 -1081 -11 -15 -19 -37 -17
-50 4 -18 188 161 1092 1063 598 597 1092 1093 1097 1103 8 14 5 17 -18 17
-23 0 -191 -164 -1081 -1052z"/>
<path d="M1202 3958 c-634 -634 -1162 -1165 -1173 -1181 -11 -15 -19 -37 -17
-50 4 -18 205 178 1192 1163 653 652 1192 1193 1197 1203 8 14 5 17 -18 17
-23 0 -206 -178 -1181 -1152z"/>
<path d="M1302 3858 c-689 -689 -1262 -1265 -1273 -1281 -11 -15 -19 -37 -17
-50 4 -18 222 195 1292 1263 708 707 1292 1293 1297 1303 8 14 5 17 -18 17
-23 0 -220 -193 -1281 -1252z"/>
<path d="M1402 3758 c-744 -744 -1362 -1365 -1373 -1381 -11 -15 -19 -37 -17
-50 4 -18 117 90 681 653 372 371 677 672 677 670 0 -3 -9 -31 -20 -63 -11
-31 -20 -67 -20 -79 0 -16 -179 -202 -660 -683 -548 -549 -660 -665 -660 -688
0 -15 3 -27 7 -27 4 0 296 288 649 641 l641 641 7 -58 7 -58 -106 -106 c-67
-67 -118 -110 -138 -116 -24 -7 -37 -20 -53 -52 -14 -30 -172 -194 -517 -540
-411 -412 -497 -503 -497 -525 0 -15 3 -27 7 -27 4 0 229 222 500 492 l493
493 0 -65 0 -65 -500 -500 c-414 -414 -500 -506 -500 -528 0 -15 3 -27 7 -27
4 0 229 222 500 492 l493 493 0 -65 0 -65 -500 -500 c-414 -414 -500 -506
-500 -528 0 -15 3 -27 7 -27 4 0 229 222 500 492 l493 493 0 -65 0 -65 -500
-500 c-414 -414 -500 -506 -500 -528 0 -15 3 -27 7 -27 4 0 229 222 500 492
l493 493 0 -65 0 -65 -500 -500 c-414 -414 -500 -506 -500 -528 0 -15 3 -27 7
-27 4 0 229 222 500 492 l493 493 0 -65 0 -65 -500 -500 c-414 -414 -500 -506
-500 -528 0 -15 3 -27 7 -27 4 0 231 223 504 496 l497 497 15 -49 14 -49 -518
-520 c-433 -434 -519 -525 -519 -548 0 -23 3 -26 18 -18 9 5 248 241 531 524
l514 515 30 -35 30 -34 -561 -563 c-466 -466 -562 -566 -562 -589 0 -15 3 -27
7 -27 4 0 267 259 584 576 l576 576 34 -30 34 -31 -618 -618 c-513 -514 -617
-623 -617 -646 0 -15 3 -27 7 -27 4 0 290 282 634 626 l627 626 26 -38 26 -39
-660 -660 c-549 -550 -660 -665 -660 -688 0 -15 3 -27 7 -27 4 0 306 298 670
662 l662 662 7 -42 c5 -29 11 -42 23 -42 9 0 -285 -300 -652 -668 -367 -367
-667 -671 -667 -675 0 -4 12 -7 27 -7 23 0 132 105 650 622 l623 623 0 -65 0
-65 -541 -540 c-297 -297 -545 -548 -550 -558 -8 -14 -5 -17 18 -17 23 0 115
88 558 529 l530 530 24 -20 c13 -10 33 -19 44 -19 16 0 -119 -141 -481 -503
-276 -276 -502 -506 -502 -510 0 -4 12 -7 27 -7 23 0 115 88 538 510 l510 510
65 0 65 0 -503 -503 c-276 -276 -502 -506 -502 -510 0 -4 12 -7 27 -7 23 0
115 88 538 510 l510 510 65 0 65 0 -503 -503 c-276 -276 -502 -506 -502 -510
0 -4 12 -7 27 -7 23 0 354 326 2111 2083 1146 1145 2092 2094 2103 2110 11 15
19 37 17 50 -4 18 -271 -245 -1576 -1548 l-1572 -1570 0 65 0 65 283 283 c186
186 288 281 298 277 9 -3 160 141 444 426 270 270 425 433 416 436 -19 8 137
163 164 163 20 0 66 48 114 120 13 19 341 352 727 740 587 588 704 710 704
733 0 15 -3 27 -7 27 -4 0 -308 -300 -676 -667 -367 -368 -664 -656 -658 -642
5 15 14 53 20 85 l11 59 655 655 c545 546 655 660 655 683 0 15 -3 27 -7 27
-4 0 -298 -291 -654 -646 l-646 -646 -6 58 -5 59 659 660 c548 550 659 665
659 688 0 15 -3 27 -7 27 -4 0 -303 -295 -664 -656 -361 -361 -659 -652 -661
-648 -3 5 -11 26 -18 48 l-12 38 681 682 c567 568 681 686 681 709 0 15 -3 27
-7 27 -4 0 -316 -308 -693 -685 l-686 -686 -23 42 -24 41 662 662 c363 364
661 665 661 669 0 4 -12 7 -27 7 -23 0 -136 -109 -678 -650 l-650 -650 -29 36
-29 36 607 607 c333 333 606 610 606 614 0 4 -12 7 -27 7 -23 0 -129 -102
-628 -599 l-600 -600 -35 30 -35 29 563 563 c309 309 562 566 562 570 0 4 -12
7 -27 7 -23 0 -122 -95 -585 -557 l-557 -557 -40 19 c-23 10 -41 21 -41 24 0
3 232 238 516 521 283 283 520 523 525 533 8 14 5 17 -18 17 -23 0 -114 -87
-553 -525 -289 -289 -532 -525 -540 -525 -8 0 -33 5 -54 11 l-39 11 507 507
c278 278 506 510 506 514 0 4 -12 7 -27 7 -22 0 -115 -88 -538 -509 l-510
-510 -67 -3 -68 -3 505 505 c278 278 505 509 505 513 0 4 -12 7 -27 7 -23 0
-117 -89 -548 -519 -377 -377 -528 -522 -550 -527 -16 -4 -61 -20 -100 -36
l-70 -29 548 548 c301 302 547 552 547 556 0 4 -12 7 -27 7 -23 0 -130 -102
-634 -606 l-607 -607 -36 29 -36 29 570 570 c314 314 570 574 570 578 0 4 -12
7 -27 7 -23 0 -123 -96 -590 -562 l-562 -562 -40 19 c-23 10 -41 21 -41 24 0
3 234 240 521 526 286 286 525 528 530 538 8 14 5 17 -18 17 -23 0 -115 -88
-558 -530 l-531 -531 -53 13 -52 12 510 511 c281 281 511 514 511 518 0 4 -12
7 -27 7 -22 0 -116 -89 -543 -513 l-515 -512 -58 5 -57 5 490 490 c270 270
496 498 501 508 8 14 5 17 -18 17 -23 0 -113 -85 -543 -514 -471 -471 -519
-515 -560 -526 -25 -6 -62 -18 -83 -26 -20 -7 -41 -14 -45 -14 -4 0 233 240
526 533 292 293 532 536 532 540 0 4 -12 7 -27 7 -23 0 -243 -216 -1381 -1352z
m1290 -510 c-80 -81 -147 -146 -149 -145 -1 2 7 39 18 82 l20 80 112 113 112
112 16 -47 17 -48 -146 -147z m178 36 l13 -46 -56 -56 -56 -56 -12 30 c-10 27
-12 28 -20 9 -4 -11 -13 -38 -18 -60 -8 -32 -35 -64 -132 -160 -66 -66 -119
-111 -116 -100 3 11 13 49 22 85 16 65 17 66 183 233 92 92 170 167 173 167 4
0 12 -21 19 -46z m-632 -30 c12 -8 22 -21 22 -27 0 -7 -54 -66 -120 -132
l-121 -120 45 109 c31 75 57 121 83 148 41 42 57 46 91 22z m-889 -134 c1 -9
-32 -49 -73 -89 -64 -64 -75 -71 -80 -54 -4 11 -16 29 -27 39 -20 18 -19 19
68 106 l88 89 12 -38 c6 -21 12 -45 12 -53z m951 -6 l13 -46 -194 -194 -194
-194 -65 0 -64 0 239 240 c132 132 243 240 246 240 4 0 12 -21 19 -46z m-978
-236 c-53 -54 -100 -98 -104 -98 -5 0 -8 26 -8 57 l0 58 82 82 82 82 22 -42
22 -42 -96 -97z m1031 91 l15 -47 -63 -62 -62 -62 -17 48 -16 48 62 63 c34 34
63 61 63 60 1 -1 9 -23 18 -48z m311 -86 l-24 -87 -147 -148 -148 -148 -16 47
-17 48 186 188 c103 103 187 187 188 187 0 0 -10 -39 -22 -87z m-1164 -23 c0
-3 -60 -65 -134 -139 l-133 -133 -8 57 -7 58 114 114 113 113 27 -32 c15 -18
28 -35 28 -38z m1513 0 c4 -15 14 -20 38 -20 l34 0 -77 -77 c-83 -83 -99 -86
-112 -21 -6 29 -1 37 46 85 29 29 55 53 59 53 4 0 9 -9 12 -20z m-657 -148
l-61 -62 -16 47 -17 48 62 63 61 62 16 -47 17 -48 -62 -63z m-774 25 l-103
-103 -44 20 -43 21 81 83 82 82 65 0 65 0 -103 -103z m223 23 c-44 -44 -85
-80 -92 -80 -7 0 -13 -6 -13 -13 0 -7 -42 -54 -94 -106 -86 -86 -94 -91 -99
-69 -4 12 -7 39 -7 58 0 31 13 47 127 162 l128 128 65 0 65 0 -80 -80z m1400
0 l-80 -80 -65 0 -65 0 80 80 80 80 65 0 65 0 -80 -80z m200 0 l-80 -80 -65 0
-65 0 80 80 80 80 65 0 65 0 -80 -80z m-811 -147 c-23 -86 -26 -90 -103 -167
-67 -67 -82 -78 -95 -67 -8 7 -18 26 -21 43 -7 29 0 38 116 154 68 68 124 124
125 124 1 0 -9 -39 -22 -87z m-819 -23 l29 -30 -114 -115 c-63 -63 -117 -115
-120 -115 -3 0 -13 19 -23 42 l-17 42 102 103 c57 57 105 103 108 103 4 0 19
-14 35 -30z m100 -100 l29 -31 -135 -135 -135 -135 -23 42 -24 41 124 124 c68
68 126 124 129 124 4 0 19 -14 35 -30z m100 -100 l29 -31 -144 -144 -144 -144
-27 37 -28 37 137 138 c75 75 139 137 142 137 4 0 19 -14 35 -30z m100 -100
l29 -31 -144 -144 -144 -145 -33 32 -33 32 142 143 c79 79 145 143 148 143 4
0 19 -14 35 -30z m100 -100 l29 -31 -154 -154 -154 -154 -23 34 c-13 19 -23
37 -23 42 0 9 282 293 290 293 4 0 19 -14 35 -30z m100 -100 l29 -31 -175
-175 -176 -176 -18 47 -18 47 159 159 c87 88 161 159 165 159 3 0 18 -14 34
-30z m100 -100 l29 -31 -214 -214 -215 -215 -5 57 -5 58 185 188 c101 103 187
187 191 187 3 0 18 -14 34 -30z m100 -100 l29 -31 -299 -299 -300 -300 -65 0
-64 0 44 45 c41 42 48 45 97 45 l53 0 0 52 0 53 232 232 c128 128 235 233 239
233 3 0 18 -14 34 -30z"/>
<path d="M4594 3549 c-465 -465 -513 -510 -532 -500 -35 18 -61 13 -99 -22
-31 -29 -37 -42 -45 -98 l-8 -64 -98 -97 c-53 -54 -102 -98 -110 -98 -24 0
-60 -31 -72 -63 -8 -20 -474 -494 -1291 -1312 -704 -704 -1279 -1284 -1279
-1288 0 -4 12 -7 27 -7 23 0 227 200 1275 1247 687 686 1248 1240 1248 1231 0
-9 -16 -54 -37 -100 l-36 -83 -1139 -1140 c-626 -627 -1138 -1144 -1138 -1148
0 -4 12 -7 27 -7 23 0 198 170 1082 1053 580 578 1023 1017 985 975 -76 -85
-124 -158 -159 -244 -21 -52 -91 -125 -879 -913 -471 -471 -856 -860 -856
-864 0 -4 12 -7 27 -7 23 0 162 134 845 817 l818 818 0 -65 0 -65 -736 -735
c-404 -404 -740 -743 -745 -752 -8 -15 -5 -18 18 -18 23 0 142 115 745 717
l718 718 0 -43 c0 -37 3 -42 22 -42 17 0 -145 -168 -645 -668 -367 -367 -667
-671 -667 -675 0 -4 12 -7 27 -7 23 0 132 104 645 617 l618 618 0 -65 0 -65
-536 -535 c-294 -294 -540 -543 -545 -553 -8 -14 -5 -17 18 -17 23 0 114 87
553 525 497 496 527 524 545 510 11 -8 33 -15 50 -15 27 0 -18 -48 -473 -503
-276 -276 -502 -506 -502 -510 0 -4 12 -7 27 -7 23 0 115 88 538 510 l510 510
65 0 65 0 -503 -503 c-276 -276 -502 -506 -502 -510 0 -4 12 -7 27 -7 23 0
115 88 538 510 l510 510 65 0 65 0 -503 -503 c-276 -276 -502 -506 -502 -510
0 -4 12 -7 27 -7 23 0 218 190 1211 1183 651 650 1192 1194 1203 1210 11 15
19 37 17 50 -4 18 -117 -90 -681 -653 l-677 -675 0 65 0 65 680 680 c571 571
680 685 680 708 0 23 -3 26 -17 18 -10 -5 -328 -321 -708 -700 l-690 -691 -65
0 -64 0 44 45 c40 40 49 45 90 45 l46 0 12 57 12 58 670 670 c558 558 670 675
670 698 0 15 -3 27 -7 27 -4 0 -236 -228 -516 -507 -413 -412 -508 -502 -503
-478 3 17 8 50 11 75 7 44 23 61 511 550 417 418 504 511 504 533 0 15 -3 27
-7 27 -4 0 -232 -224 -505 -497 l-498 -498 0 65 0 65 505 505 c418 419 505
511 505 533 0 15 -3 27 -7 27 -4 0 -232 -224 -505 -497 l-498 -498 0 65 0 65
505 505 c418 419 505 511 505 533 0 15 -3 27 -7 27 -4 0 -232 -224 -505 -497
l-498 -498 0 65 0 65 505 505 c418 419 505 511 505 533 0 15 -3 27 -7 27 -4 0
-232 -224 -505 -497 l-498 -498 0 65 0 65 505 505 c421 422 505 510 505 533 0
23 -3 26 -17 18 -10 -5 -236 -228 -503 -496 l-485 -485 -5 57 -5 58 507 510
c420 422 508 516 508 538 0 15 -3 27 -7 27 -4 0 -238 -230 -519 -511z"/>
<path d="M3996 1150 c-614 -613 -1122 -1123 -1127 -1132 -8 -15 -5 -18 18 -18
23 0 196 168 1111 1082 596 596 1092 1095 1103 1111 11 15 19 37 17 50 -4 18
-193 -166 -1122 -1093z"/>
<path d="M4096 1050 c-559 -558 -1022 -1023 -1027 -1033 -8 -14 -5 -17 18 -17
23 0 181 153 1011 983 541 540 992 994 1003 1010 11 15 19 37 17 50 -4 18
-175 -149 -1022 -993z"/>
<path d="M4196 950 c-504 -503 -922 -923 -927 -932 -8 -15 -5 -18 18 -18 23 0
167 139 911 882 486 486 892 895 903 911 11 15 19 37 17 50 -4 18 -158 -132
-922 -893z"/>
<path d="M4296 850 c-449 -448 -822 -823 -827 -832 -8 -15 -5 -18 18 -18 23 0
152 124 811 783 431 430 792 794 803 810 11 15 19 37 17 50 -4 18 -141 -114
-822 -793z"/>
<path d="M4396 750 c-394 -393 -722 -723 -727 -732 -8 -15 -5 -18 18 -18 23 0
137 110 711 683 376 375 692 694 703 710 11 15 19 37 17 50 -4 18 -124 -97
-722 -693z"/>
<path d="M4496 650 c-339 -338 -622 -623 -627 -632 -8 -15 -5 -18 18 -18 23 0
123 95 611 583 321 320 592 594 603 610 11 15 19 37 17 50 -4 18 -106 -80
-622 -593z"/>
<path d="M4596 550 c-284 -283 -522 -523 -527 -533 -8 -14 -5 -17 18 -17 23 0
108 81 511 483 266 265 492 494 503 510 11 15 19 37 17 50 -4 18 -89 -62 -522
-493z"/>
<path d="M4696 450 c-229 -228 -422 -423 -427 -432 -8 -15 -5 -18 18 -18 22 0
93 66 411 383 211 210 392 394 403 410 11 15 19 37 17 50 -4 18 -72 -45 -422
-393z"/>
<path d="M4796 350 c-174 -173 -322 -323 -327 -332 -8 -15 -5 -18 17 -18 23 0
80 52 312 282 156 156 293 295 303 311 11 15 19 37 17 50 -4 18 -54 -28 -322
-293z"/>
<path d="M4896 250 c-119 -118 -222 -223 -227 -232 -8 -15 -5 -18 17 -18 21 0
65 37 211 183 205 202 226 227 221 260 -3 19 -37 -11 -222 -193z"/>
<path d="M4996 150 c-136 -133 -149 -150 -111 -150 18 0 49 23 111 82 102 98
127 130 122 161 -3 19 -19 7 -122 -93z"/>
</g>
</svg>
