<?xml version="1.0" standalone="no"?>
<!DOCTYPE svg PUBLIC "-//W3C//DTD SVG 20010904//EN"
 "http://www.w3.org/TR/2001/REC-SVG-20010904/DTD/svg10.dtd">
<svg version="1.0" xmlns="http://www.w3.org/2000/svg"
 width="128.000000pt" height="128.000000pt" viewBox="0 0 128.000000 128.000000"
 preserveAspectRatio="xMidYMid meet">
<metadata>
Created by potrace 1.15, written by Peter Selinger 2001-2017
</metadata>
<g transform="translate(0.000000,128.000000) scale(0.100000,-0.100000)"
fill="#000000" stroke="none">
<path d="M518 1264 c-127 -30 -242 -114 -291 -210 -37 -74 -50 -155 -43 -259
l7 -91 -54 -80 c-29 -43 -56 -87 -60 -97 -9 -23 24 -56 64 -64 23 -4 29 -10
24 -22 -4 -9 -9 -31 -12 -48 -5 -29 -2 -34 22 -43 22 -8 25 -14 17 -22 -23
-23 -13 -56 22 -77 27 -17 36 -30 41 -63 11 -62 42 -88 107 -88 29 1 70 7 91
14 20 8 39 11 41 7 2 -3 9 -32 16 -63 l13 -58 230 0 230 0 -7 155 -7 154 44
55 c93 113 173 283 187 398 10 81 -12 234 -44 303 -46 100 -146 169 -292 200
-86 18 -270 18 -346 -1z m276 -75 l25 -12 -29 -43 c-17 -23 -30 -46 -30 -51 0
-5 20 -14 45 -21 49 -13 54 -24 34 -81 -9 -26 -16 -31 -42 -31 -18 0 -42 -3
-54 -6 -17 -5 -23 -2 -23 10 0 29 -28 17 -40 -18 -15 -46 -51 -55 -95 -25 -29
20 -32 25 -22 47 9 19 16 23 39 18 23 -4 28 -2 28 14 0 10 -4 21 -10 25 -5 3
-7 12 -4 20 5 12 12 11 46 -1 84 -29 112 -8 44 33 -45 27 -46 29 -46 80 l0 53
55 0 c30 0 65 -5 79 -11z m159 -72 c-2 -51 -8 -76 -23 -98 -32 -44 -51 -39
-44 14 l6 43 -41 12 -41 13 32 47 c30 47 32 48 72 42 l41 -5 -2 -68z m-343 28
l0 -35 -47 -1 c-41 0 -45 -2 -30 -12 50 -32 49 -29 20 -84 -28 -52 -28 -53
-75 -53 -51 0 -53 2 -42 59 6 30 8 31 63 32 l56 1 -43 20 c-40 18 -43 21 -30
40 10 15 72 49 126 67 1 1 2 -15 2 -34z m528 -195 l23 -40 -64 0 c-63 0 -65
-1 -77 -31 -15 -35 -4 -49 40 -48 l25 0 -22 16 c-36 24 -27 33 32 33 l55 0 0
-45 0 -45 -51 0 c-36 0 -60 6 -81 22 -27 18 -35 20 -62 10 -18 -7 -41 -12 -51
-12 -17 0 -17 1 -1 19 16 17 15 19 -15 25 -44 9 -89 8 -89 -2 0 -5 9 -17 19
-26 19 -17 19 -20 4 -52 l-17 -34 -88 0 c-104 0 -138 15 -138 61 0 43 24 50
89 24 95 -38 101 -39 101 -16 0 14 -11 25 -35 35 -24 10 -35 22 -35 35 0 19 6
21 62 21 48 0 71 6 105 26 42 24 45 25 93 11 l50 -15 47 34 c27 19 50 34 53
34 3 0 15 -18 28 -40z"/>
</g>
</svg>
